<!DOCTYPE svg PUBLIC "-//W3C//DTD SVG 1.1//EN" "http://www.w3.org/Graphics/SVG/1.1/DTD/svg11.dtd">
<!-- Uploaded to: SVG Repo, www.svgrepo.com, Transformed by: SVG Repo Mixer Tools -->
<svg fill="#f7f1ff" version="1.1" id="Layer_1" xmlns:x="&amp;ns_extend;" xmlns:i="&amp;ns_ai;" xmlns:graph="&amp;ns_graphs;" xmlns="http://www.w3.org/2000/svg" xmlns:xlink="http://www.w3.org/1999/xlink" width="800px" height="800px" viewBox="0 0 24 24" enable-background="new 0 0 24 24" xml:space="preserve">
<g id="SVGRepo_bgCarrier" stroke-width="0"/>
<g id="SVGRepo_tracerCarrier" stroke-linecap="round" stroke-linejoin="round"/>
<g id="SVGRepo_iconCarrier"> <metadata> <sfw> <slices> </slices> <slicesourcebounds width="505" height="984" bottomleftorigin="true" x="0" y="-984"> </slicesourcebounds> </sfw> </metadata> <g> <g> <g> <path d="M5,10c-2.8,0-5-2.2-5-5s2.2-5,5-5s5,2.2,5,5c0,0.6-0.4,1-1,1S8,5.6,8,5c0-1.7-1.3-3-3-3S2,3.3,2,5s1.3,3,3,3 c0.6,0,1,0.4,1,1S5.6,10,5,10z"/> </g> </g> <g> <g> <path d="M19,10c-0.6,0-1-0.4-1-1s0.4-1,1-1c1.7,0,3-1.3,3-3s-1.3-3-3-3s-3,1.3-3,3c0,0.6-0.4,1-1,1s-1-0.4-1-1c0-2.8,2.2-5,5-5 s5,2.2,5,5S21.8,10,19,10z"/> </g> </g> <g> <g> <path d="M5,24c-2.8,0-5-2.2-5-5s2.2-5,5-5c0.6,0,1,0.4,1,1s-0.4,1-1,1c-1.7,0-3,1.3-3,3s1.3,3,3,3s3-1.3,3-3c0-0.6,0.4-1,1-1 s1,0.4,1,1C10,21.8,7.8,24,5,24z"/> </g> </g> <g> <g> <path d="M19,24c-2.8,0-5-2.2-5-5c0-0.6,0.4-1,1-1s1,0.4,1,1c0,1.7,1.3,3,3,3s3-1.3,3-3s-1.3-3-3-3c-0.6,0-1-0.4-1-1s0.4-1,1-1 c2.8,0,5,2.2,5,5S21.8,24,19,24z"/> </g> </g> <g> <g> <path d="M9,20c-0.6,0-1-0.4-1-1V5c0-0.6,0.4-1,1-1s1,0.4,1,1v14C10,19.6,9.6,20,9,20z"/> </g> </g> <g> <g> <path d="M15,20c-0.6,0-1-0.4-1-1V5c0-0.6,0.4-1,1-1s1,0.4,1,1v14C16,19.6,15.6,20,15,20z"/> </g> </g> <g> <g> <path d="M19,10H5c-0.6,0-1-0.4-1-1s0.4-1,1-1h14c0.6,0,1,0.4,1,1S19.6,10,19,10z"/> </g> </g> <g> <g> <path d="M19,16H5c-0.6,0-1-0.4-1-1s0.4-1,1-1h14c0.6,0,1,0.4,1,1S19.6,16,19,16z"/> </g> </g> </g> </g>
</svg>